<svg width="100" height="80" fill="none" xmlns="http://www.w3.org/2000/svg"><path opacity=".6" d="M32.634 37.115c3.885 1.712 6.915 4.28 9.09 7.703 2.177 3.424 3.264 7.47 3.264 12.138 0 6.692-2.098 12.138-6.293 16.34-4.196 4.046-9.558 6.07-16.084 6.07-6.527 0-11.966-2.102-16.317-6.303C2.098 68.86 0 63.492 0 56.956c0-3.112.389-6.225 1.165-9.337.777-3.112 2.487-7.78 5.129-14.006L19.814 0H42.89L32.634 37.115zm55.012 0c3.885 1.712 6.915 4.28 9.09 7.703 2.176 3.424 3.264 7.47 3.264 12.138 0 6.692-2.098 12.138-6.294 16.34-4.196 4.046-9.557 6.07-16.084 6.07-6.526 0-11.965-2.102-16.317-6.303-4.195-4.202-6.293-9.57-6.293-16.107 0-3.112.388-6.225 1.165-9.337s2.487-7.78 5.128-14.006L74.825 0h23.077L87.646 37.115z" fill="#B88E6D"/></svg>