<svg width="22" height="22" fill="none" xmlns="http://www.w3.org/2000/svg"><path d="M4 2l.8-.6L4 .333 3.2 1.4 4 2zm0 16H3v1h1v-1zm16 0l.707.707.707-.707-.707-.707L20 18zM8 9l.768-.64A1 1 0 007 9h1zm2.5 3l-.768.64.768.922.768-.922L10.5 12zM13 9h1a1 1 0 00-1.768-.64L13 9zm6-7h1a1 1 0 00-1-1v1zm0 3v1a1 1 0 001-1h-1zm-3 0V4a1 1 0 00-1 1h1zm0 3h-1a1 1 0 001 1V8zM3 2v16h2V2H3zm1 17h16v-2H4v2zM3.2 2.6l3 4 1.6-1.2-3-4-1.6 1.2zm0-1.2l-3 4 1.6 1.2 3-4-1.6-1.2zm17.507 15.893l-3-3-1.414 1.414 3 3 1.414-1.414zm-1.414 0l-3 3 1.414 1.414 3-3-1.414-1.414zM9 15V9H7v6h2zM7.232 9.64l2.5 3 1.536-1.28-2.5-3-1.536 1.28zm4.036 3l2.5-3-1.536-1.28-2.5 3 1.536 1.28zM12 9v6h2V9h-2zm3-6h4V1h-4v2zm3-1v3h2V2h-2zm1 2h-3v2h3V4zm-4 1v3h2V5h-2zm1 4h4V7h-4v2z" fill="#fff"/></svg>